<?xml version="1.0" standalone="no"?>
<!DOCTYPE svg PUBLIC "-//W3C//DTD SVG 20010904//EN"
 "http://www.w3.org/TR/2001/REC-SVG-20010904/DTD/svg10.dtd">
<svg version="1.0" xmlns="http://www.w3.org/2000/svg"
 width="700.000000pt" height="700.000000pt" viewBox="0 0 700.000000 700.000000"
 preserveAspectRatio="xMidYMid meet">
<metadata>
Created by potrace 1.14, written by Peter Selinger 2001-2017
</metadata>
<g transform="translate(0.000000,700.000000) scale(0.100000,-0.100000)"
fill="#000000" stroke="none">
<path d="M2620 6993 c-619 -59 -1148 -277 -1616 -668 -167 -139 -384 -382
-518 -579 -147 -216 -280 -492 -360 -751 -30 -95 -73 -276 -81 -335 -3 -23 -7
-45 -9 -49 -2 -3 -7 -35 -11 -71 -4 -36 -11 -94 -15 -130 -8 -66 -5 -509 3
-545 3 -11 8 -45 11 -76 4 -31 8 -65 10 -75 2 -11 7 -39 11 -64 35 -227 169
-615 285 -827 293 -534 715 -946 1235 -1206 254 -128 487 -205 782 -261 11 -3
43 -8 70 -12 26 -3 56 -8 66 -10 134 -24 632 -23 727 1 8 2 38 6 65 10 28 3
57 8 65 10 8 2 26 6 40 9 218 39 481 128 695 235 170 84 234 122 379 224 l69
49 506 -511 c983 -992 1237 -1244 1286 -1276 28 -17 74 -40 104 -50 67 -22
190 -23 249 -1 23 8 44 14 45 13 10 -7 132 80 162 116 43 50 89 144 103 209
20 99 -9 238 -68 322 -28 40 -498 512 -1348 1354 l-433 429 35 49 c292 415
456 851 512 1359 10 90 12 411 4 485 -5 36 -11 94 -14 130 -6 68 -26 190 -46
275 -6 28 -13 57 -15 65 -2 8 -11 42 -20 75 -195 694 -640 1286 -1251 1663
-333 206 -755 356 -1119 398 -27 3 -61 8 -75 11 -29 5 -468 11 -520 6z m340
-1328 c76 -25 158 -108 189 -190 l23 -60 -1 -1151 c0 -1136 -1 -1152 -21
-1206 -63 -169 -243 -251 -422 -192 -53 17 -129 80 -163 134 -52 82 -51 61
-50 1285 2 1078 3 1142 20 1185 71 175 244 255 425 195z m1094 -875 c76 -29
139 -88 178 -168 l33 -67 0 -708 c1 -555 -2 -719 -12 -760 -25 -97 -110 -190
-206 -225 -23 -8 -75 -15 -115 -15 -63 0 -82 5 -138 34 -71 36 -121 86 -156
158 l-23 46 -2 732 -3 732 25 57 c41 94 107 157 195 187 64 23 158 21 224 -3z
m-2204 -432 c85 -26 157 -91 199 -178 l26 -55 0 -515 c0 -508 0 -516 -22 -562
-62 -135 -177 -207 -320 -202 -118 4 -229 80 -281 192 l-27 57 0 515 0 515 26
55 c73 154 238 228 399 178z"/>
</g>
</svg>
